<svg xmlns="http://www.w3.org/2000/svg" version="1.1" xmlns:xlink="http://www.w3.org/1999/xlink" xmlns:svgjs="http://svgjs.dev/svgjs" width="1000" height="1000" viewBox="0 0 1000 1000"><rect width="1000" height="1000" fill="#fbf7d7"></rect><g transform="matrix(0.7,0,0,0.7,150,106.25)"><svg viewBox="0 0 320 360" data-background-color="#fbf7d7" preserveAspectRatio="xMidYMid meet" height="1125" width="1000" xmlns="http://www.w3.org/2000/svg" xmlns:xlink="http://www.w3.org/1999/xlink"><g id="tight-bounds" transform="matrix(1,0,0,1,0,0)"><svg viewBox="0 0 320 360" height="360" width="320"><g><svg></svg></g><g><svg viewBox="0 0 320 360" height="360" width="320"><g><path xmlns="http://www.w3.org/2000/svg" d="M297.491 100.645c-12.426-21.51-112.674-79.355-137.491-79.355-24.817 0-125.028 57.845-137.491 79.355-11.591 20.02-11.591 138.726 0 158.746 12.463 21.474 112.674 79.319 137.491 79.319 24.817 0 125.064-57.845 137.491-79.355 11.591-20.02 11.591-138.69 0-158.71zM309.481 93.705c-14.461-24.998-119.469-86.295-149.481-86.295-30.012 0-135.02 61.297-149.481 86.295-14.025 24.199-14.025 148.391 0 172.59 14.461 24.998 119.469 86.295 149.481 86.295 30.012 0 135.02-61.297 149.481-86.259 14.025-24.235 14.025-148.427 0-172.626zM300.906 261.353c-12.753 22.055-115.472 81.317-140.906 81.318-25.434 0-128.153-59.298-140.906-81.354-11.881-20.529-11.881-142.178 0-162.707 12.753-22.019 115.472-81.281 140.906-81.281 25.434 0 128.153 59.298 140.906 81.318 11.881 20.529 11.881 142.178 0 162.706z" fill="#374c1e" fill-rule="nonzero" stroke="none" stroke-width="1" stroke-linecap="butt" stroke-linejoin="miter" stroke-miterlimit="10" stroke-dasharray="" stroke-dashoffset="0" font-family="none" font-weight="none" font-size="none" text-anchor="none" style="mix-blend-mode: normal" data-fill-palette-color="tertiary"></path></g><g transform="matrix(1,0,0,1,48,143.8263589641356)"><svg viewBox="0 0 224 72.3472820717288" height="72.3472820717288" width="224"><g><svg viewBox="0 0 343.6763325495516 111.00021684080215" height="72.3472820717288" width="224"><g transform="matrix(1,0,0,1,118.5563325495516,34.300678160507616)"><svg viewBox="0 0 225.11999999999998 42.398860519786915" height="42.398860519786915" width="225.11999999999998"><g id="textblocktransform"><svg viewBox="0 0 225.11999999999998 42.398860519786915" height="42.398860519786915" width="225.11999999999998" id="textblock"><g><rect width="225.11999999999998" height="2.2162017044337956" x="0" y="27.185740339974775" fill="#fbf7d7" opacity="1" stroke-width="0" stroke="transparent" fill-opacity="1" class="rect-o-0" data-fill-palette-color="quaternary" rx="1%" id="o-0" data-palette-color="#fbf7d7"></rect></g><g transform="matrix(1,0,0,1,0.5599999999999881,0)"><svg viewBox="0 0 224 24.575031525851195" height="24.575031525851195" width="224"><g transform="matrix(1,0,0,1,0,0)"><svg width="224" viewBox="1 -33.900001525878906 317.17999267578125 34.80000305175781" height="24.575031525851195" data-palette-color="#fbf7d7"><path d="M18.2 0.9L18.2 0.9Q13.1 0.9 9.22-1.23 5.35-3.35 3.18-7.28 1-11.2 1-16.55L1-16.55Q1-21.75 3.15-25.65 5.3-29.55 9.38-31.73 13.45-33.9 19.25-33.9L19.25-33.9Q21.9-33.9 24.18-33.3 26.45-32.7 28.5-31.55L28.5-31.55 28.7-24.55 28.2-24.55 25.4-29.75Q24.75-31 24.2-31.55 23.65-32.1 22.8-32.4L22.8-32.4Q22-32.65 21.33-32.77 20.65-32.9 19.55-32.9L19.55-32.9Q16.45-32.9 14.08-31.25 11.7-29.6 10.4-26 9.1-22.4 9.1-16.55L9.1-16.55Q9.1-10.75 10.33-7.1 11.55-3.45 13.8-1.78 16.05-0.1 19-0.1L19-0.1Q19.45-0.1 19.88-0.18 20.3-0.25 20.7-0.35L20.7-0.35Q21.65-0.5 21.95-1.15 22.25-1.8 22.25-2.7L22.25-2.7 22.25-12.6Q22.25-14.55 20.25-15L20.25-15 17.95-15.6 17.95-16.1 32.05-16.1 32.05-15.6 31.35-15.4Q29.45-14.8 29.45-12.9L29.45-12.9 29.45-2.05Q26.85-0.6 24.18 0.15 21.5 0.9 18.2 0.9ZM46.7 0L33.9 0 33.9-0.5 34.95-0.85Q35.95-1.2 36.25-1.78 36.55-2.35 36.55-3.4L36.55-3.4 36.55-29.55Q36.55-30.55 36.27-31.13 36-31.7 35.05-32.05L35.05-32.05 33.9-32.5 33.9-33 48.2-33Q54.1-33 57.25-30.78 60.4-28.55 60.4-24.6L60.4-24.6Q60.4-22.4 58.75-20.2 57.1-18 53.55-16.8L53.55-16.8 60.5-3Q60.95-2.15 61.52-1.63 62.1-1.1 63.05-0.7L63.05-0.7 63.7-0.45 63.7 0 54.75 0 47.35-15.75 43.95-15.75 43.95-3.4Q43.95-2.45 44.25-1.85 44.55-1.25 45.5-0.95L45.5-0.95 46.7-0.5 46.7 0ZM43.95-32L43.95-16.75 46.35-16.75Q49.95-16.75 51.55-18.68 53.15-20.6 53.15-24.4L53.15-24.4Q53.15-28.25 51.65-30.13 50.15-32 46.6-32L46.6-32 43.95-32ZM90.25 0L65.3 0 65.3-0.5 66.45-0.95Q67.3-1.3 67.62-1.88 67.95-2.45 67.95-3.45L67.95-3.45 67.95-29.55Q67.95-30.55 67.67-31.13 67.4-31.7 66.45-32.05L66.45-32.05 65.3-32.5 65.3-33 89.25-33 89.55-25.3 89.05-25.3 86.9-30Q86.45-30.9 85.95-31.45 85.45-32 84.45-32L84.45-32 75.45-32 75.45-17.55 80.8-17.55Q81.8-17.55 82.32-18.07 82.85-18.6 83.25-19.5L83.25-19.5 84.25-21.5 84.75-21.5 84.75-12.5 84.25-12.5 83.25-14.6Q82.8-15.5 82.3-16.03 81.8-16.55 80.8-16.55L80.8-16.55 75.45-16.55 75.45-1 85.55-1Q86.55-1 87.1-1.53 87.65-2.05 88-3L88-3 90.05-7.7 90.55-7.7 90.25 0ZM117.99 0L93.04 0 93.04-0.5 94.19-0.95Q95.04-1.3 95.37-1.88 95.69-2.45 95.69-3.45L95.69-3.45 95.69-29.55Q95.69-30.55 95.42-31.13 95.14-31.7 94.19-32.05L94.19-32.05 93.04-32.5 93.04-33 116.99-33 117.29-25.3 116.79-25.3 114.64-30Q114.19-30.9 113.69-31.45 113.19-32 112.19-32L112.19-32 103.19-32 103.19-17.55 108.54-17.55Q109.54-17.55 110.07-18.07 110.59-18.6 110.99-19.5L110.99-19.5 111.99-21.5 112.49-21.5 112.49-12.5 111.99-12.5 110.99-14.6Q110.54-15.5 110.04-16.03 109.54-16.55 108.54-16.55L108.54-16.55 103.19-16.55 103.19-1 113.29-1Q114.29-1 114.84-1.53 115.39-2.05 115.74-3L115.74-3 117.79-7.7 118.29-7.7 117.99 0ZM129.04 0L121.44 0 121.44-0.5 123.09-1Q123.99-1.25 124.39-1.98 124.79-2.7 124.79-3.7L124.79-3.7 124.79-27.75Q124.24-28.95 123.92-29.55 123.59-30.15 123.19-30.58 122.79-31 122.09-31.65L122.09-31.65 121.24-32.5 121.24-33 130.09-33 146.69-10.35 146.69-29.2Q146.69-30.2 146.37-31 146.04-31.8 145.04-32.05L145.04-32.05 143.39-32.5 143.39-33 150.54-33 150.54-32.5 149.19-32.05Q148.29-31.75 148.09-31 147.89-30.25 147.89-29.25L147.89-29.25 147.89 0.15 145.09 0.15 125.99-26.1 125.99-3.7Q125.99-2.7 126.29-2 126.59-1.3 127.54-1L127.54-1 129.04-0.5 129.04 0ZM175.09 0.9L175.09 0.9Q172.34 0.9 169.49 0.23 166.64-0.45 164.74-1.55L164.74-1.55 164.99-8.35 165.49-8.35 167.04-5.1Q167.74-3.7 168.54-2.63 169.34-1.55 170.74-0.95L170.74-0.95Q171.74-0.45 172.66-0.28 173.59-0.1 174.74-0.1L174.74-0.1Q177.79-0.1 179.56-1.75 181.34-3.4 181.34-6L181.34-6Q181.34-8.45 180.14-9.83 178.94-11.2 176.29-12.5L176.29-12.5 174.24-13.4Q169.94-15.3 167.51-17.78 165.09-20.25 165.09-24.35L165.09-24.35Q165.09-27.3 166.61-29.45 168.14-31.6 170.86-32.75 173.59-33.9 177.24-33.9L177.24-33.9Q179.89-33.9 182.26-33.2 184.64-32.5 186.39-31.3L186.39-31.3 186.09-25.3 185.59-25.3 183.54-29.05Q182.69-30.8 181.84-31.53 180.99-32.25 179.89-32.55L179.89-32.55Q179.24-32.75 178.69-32.83 178.14-32.9 177.29-32.9L177.29-32.9Q174.74-32.9 172.99-31.43 171.24-29.95 171.24-27.45L171.24-27.45Q171.24-24.9 172.59-23.38 173.94-21.85 176.54-20.65L176.54-20.65 178.84-19.65Q183.64-17.55 185.74-15.18 187.84-12.8 187.84-9.05L187.84-9.05Q187.84-4.65 184.51-1.88 181.19 0.9 175.09 0.9ZM204.53 0.15L201.08 0.15 192.23-29.6Q191.88-30.75 191.48-31.28 191.08-31.8 190.08-32.25L190.08-32.25 189.48-32.5 189.48-33 202.73-33 202.73-32.5 201.68-32.1Q200.53-31.65 200.13-31 199.73-30.35 200.08-29.2L200.08-29.2 205.53-8.4 211.43-25.85 210.28-29.4Q209.93-30.45 209.63-31 209.33-31.55 208.63-31.9L208.63-31.9 207.53-32.5 207.53-33 220.08-33 220.08-32.5 218.53-31.9Q217.53-31.55 217.41-30.88 217.28-30.2 217.63-29.15L217.63-29.15 223.98-7.9 229.98-28.75Q230.33-29.95 230.23-30.85 230.13-31.75 228.98-32.15L228.98-32.15 227.93-32.5 227.93-33 234.88-33 234.88-32.5 233.58-32Q232.58-31.65 232.18-30.9 231.78-30.15 231.48-29.05L231.48-29.05 223.18 0.15 219.73 0.15 212.23-23.35 204.53 0.15ZM261.38 0L236.43 0 236.43-0.5 237.58-0.95Q238.43-1.3 238.76-1.88 239.08-2.45 239.08-3.45L239.08-3.45 239.08-29.55Q239.08-30.55 238.81-31.13 238.53-31.7 237.58-32.05L237.58-32.05 236.43-32.5 236.43-33 260.38-33 260.68-25.3 260.18-25.3 258.03-30Q257.58-30.9 257.08-31.45 256.58-32 255.58-32L255.58-32 246.58-32 246.58-17.55 251.93-17.55Q252.93-17.55 253.46-18.07 253.98-18.6 254.38-19.5L254.38-19.5 255.38-21.5 255.88-21.5 255.88-12.5 255.38-12.5 254.38-14.6Q253.93-15.5 253.43-16.03 252.93-16.55 251.93-16.55L251.93-16.55 246.58-16.55 246.58-1 256.68-1Q257.68-1 258.23-1.53 258.78-2.05 259.13-3L259.13-3 261.18-7.7 261.68-7.7 261.38 0ZM289.13 0L264.18 0 264.18-0.5 265.33-0.95Q266.18-1.3 266.5-1.88 266.83-2.45 266.83-3.45L266.83-3.45 266.83-29.55Q266.83-30.55 266.55-31.13 266.28-31.7 265.33-32.05L265.33-32.05 264.18-32.5 264.18-33 288.13-33 288.43-25.3 287.93-25.3 285.78-30Q285.33-30.9 284.83-31.45 284.33-32 283.33-32L283.33-32 274.33-32 274.33-17.55 279.68-17.55Q280.68-17.55 281.2-18.07 281.73-18.6 282.13-19.5L282.13-19.5 283.13-21.5 283.63-21.5 283.63-12.5 283.13-12.5 282.13-14.6Q281.68-15.5 281.18-16.03 280.68-16.55 279.68-16.55L279.68-16.55 274.33-16.55 274.33-1 284.43-1Q285.43-1 285.98-1.53 286.53-2.05 286.88-3L286.88-3 288.93-7.7 289.43-7.7 289.13 0ZM305.53 0L291.93 0 291.93-0.5 292.93-0.85Q293.93-1.15 294.25-1.75 294.58-2.35 294.58-3.35L294.58-3.35 294.58-29.55Q294.58-30.55 294.23-31.15 293.88-31.75 292.88-32.1L292.88-32.1 291.93-32.5 291.93-33 304.08-33Q311.53-33 314.85-30.28 318.18-27.55 318.18-23.1L318.18-23.1Q318.18-20.25 316.8-17.88 315.43-15.5 312.28-14.1 309.13-12.7 303.78-12.7L303.78-12.7 302.08-12.7 302.08-3.5Q302.08-1.55 304.03-0.95L304.03-0.95 305.53-0.5 305.53 0ZM302.08-32L302.08-13.7 303.98-13.7Q306.43-13.7 307.98-14.5 309.53-15.3 310.28-17.3 311.03-19.3 311.03-22.85L311.03-22.85Q311.03-26.45 310.2-28.45 309.38-30.45 307.78-31.23 306.18-32 303.78-32L303.78-32 302.08-32Z" opacity="1" transform="matrix(1,0,0,1,0,0)" fill="#fbf7d7" class="wordmark-text-0" data-fill-palette-color="quaternary" id="text-0"></path></svg></g></svg></g><g transform="matrix(1,0,0,1,0,32.012650858532155)"><svg viewBox="0 0 212.79999999999998 10.38620966125476" height="10.38620966125476" width="212.79999999999998"><g transform="matrix(1,0,0,1,0,0)"><svg width="212.79999999999998" viewBox="2.25 -38.099998474121094 997.7000122070312 48.69999694824219" height="10.38620966125476" data-palette-color="#fbf7d7"><path d="M2.25 0L2.25-3 5.8-3 5.8-31.9 2.25-31.9 2.25-34.9 20.65-34.9Q25.95-34.9 28.6-32.5 31.25-30.1 31.25-25.4L31.25-25.4Q31.25-20.7 28.4-18.07 25.55-15.45 20.3-15.45L20.3-15.45 12.8-15.45 12.8-3 17.55-3 17.55 0 2.25 0ZM12.8-31.65L12.8-18.75 18.6-18.75Q21.2-18.75 22.63-20.1 24.05-21.45 24.05-23.95L24.05-23.95 24.05-26.45Q24.05-28.95 22.63-30.3 21.2-31.65 18.6-31.65L18.6-31.65 12.8-31.65ZM41.75-30.25L41.75-30.25Q39.9-30.25 38.87-31.3 37.85-32.35 37.85-34.05L37.85-34.05 37.85-34.3Q37.85-36 38.87-37.05 39.9-38.1 41.75-38.1L41.75-38.1Q43.6-38.1 44.62-37.05 45.65-36 45.65-34.3L45.65-34.3 45.65-34.05Q45.65-32.35 44.62-31.3 43.6-30.25 41.75-30.25ZM35.3 0L35.3-3 38.5-3 38.5-21.55 35.3-22.2 35.3-24.7 45.05-26.7 45.05-3 48.25-3 48.25 0 35.3 0ZM64.1-2.7L64.1-2.7Q66.8-2.7 68.12-4.35 69.45-6 69.45-9L69.45-9 69.45-17.1Q69.45-20.1 68.12-21.75 66.8-23.4 64.1-23.4L64.1-23.4Q61.4-23.4 60.07-21.75 58.75-20.1 58.75-17.1L58.75-17.1 58.75-9Q58.75-6 60.07-4.35 61.4-2.7 64.1-2.7ZM64.1 0.6L64.1 0.6Q61.3 0.6 59.02-0.33 56.75-1.25 55.12-3.03 53.5-4.8 52.6-7.33 51.7-9.85 51.7-13.05L51.7-13.05Q51.7-16.25 52.6-18.78 53.5-21.3 55.12-23.08 56.75-24.85 59.02-25.78 61.3-26.7 64.1-26.7L64.1-26.7Q66.9-26.7 69.17-25.78 71.45-24.85 73.07-23.08 74.7-21.3 75.6-18.78 76.5-16.25 76.5-13.05L76.5-13.05Q76.5-9.85 75.6-7.33 74.7-4.8 73.07-3.03 71.45-1.25 69.17-0.33 66.9 0.6 64.1 0.6ZM80.49 0L80.49-3 83.69-3 83.69-21.55 80.49-22.2 80.49-24.7 90.14-26.7 90.14-21.85 90.39-21.85Q90.74-22.8 91.37-23.68 91.99-24.55 92.92-25.23 93.84-25.9 95.04-26.3 96.24-26.7 97.79-26.7L97.79-26.7Q102.54-26.7 104.54-24.28 106.54-21.85 106.54-17L106.54-17 106.54-3 109.74-3 109.74 0 96.94 0 96.94-3 99.99-3 99.99-16.7Q99.99-19.65 98.89-20.98 97.79-22.3 95.34-22.3L95.34-22.3Q94.39-22.3 93.49-22.05 92.59-21.8 91.87-21.28 91.14-20.75 90.69-19.95 90.24-19.15 90.24-18.05L90.24-18.05 90.24-3 93.29-3 93.29 0 80.49 0ZM125.69 0.6L125.69 0.6Q122.69 0.6 120.37-0.4 118.04-1.4 116.44-3.23 114.84-5.05 114.02-7.58 113.19-10.1 113.19-13.1L113.19-13.1Q113.19-16.2 114.07-18.73 114.94-21.25 116.54-23.03 118.14-24.8 120.37-25.75 122.59-26.7 125.29-26.7L125.29-26.7Q127.99-26.7 130.17-25.83 132.34-24.95 133.87-23.35 135.39-21.75 136.22-19.53 137.04-17.3 137.04-14.55L137.04-14.55 137.04-13 120.24-13 120.24-11.2Q120.24-7.6 122.12-5.68 123.99-3.75 127.04-3.75L127.04-3.75Q129.84-3.75 131.54-5 133.24-6.25 134.04-8.1L134.04-8.1 136.49-6.6Q136.04-5.35 135.17-4.08 134.29-2.8 132.97-1.75 131.64-0.7 129.84-0.05 128.04 0.6 125.69 0.6ZM120.24-16.6L120.24-15.9 130.24-15.9 130.24-16.55Q130.24-20.15 128.97-21.85 127.69-23.55 125.29-23.55L125.29-23.55Q122.89-23.55 121.57-21.88 120.24-20.2 120.24-16.6L120.24-16.6ZM153.49 0.6L153.49 0.6Q150.49 0.6 148.16-0.4 145.84-1.4 144.24-3.23 142.64-5.05 141.81-7.58 140.99-10.1 140.99-13.1L140.99-13.1Q140.99-16.2 141.86-18.73 142.74-21.25 144.34-23.03 145.94-24.8 148.16-25.75 150.39-26.7 153.09-26.7L153.09-26.7Q155.79-26.7 157.96-25.83 160.14-24.95 161.66-23.35 163.19-21.75 164.01-19.53 164.84-17.3 164.84-14.55L164.84-14.55 164.84-13 148.04-13 148.04-11.2Q148.04-7.6 149.91-5.68 151.79-3.75 154.84-3.75L154.84-3.75Q157.64-3.75 159.34-5 161.04-6.25 161.84-8.1L161.84-8.1 164.29-6.6Q163.84-5.35 162.96-4.08 162.09-2.8 160.76-1.75 159.44-0.7 157.64-0.05 155.84 0.6 153.49 0.6ZM148.04-16.6L148.04-15.9 158.04-15.9 158.04-16.55Q158.04-20.15 156.76-21.85 155.49-23.55 153.09-23.55L153.09-23.55Q150.69-23.55 149.36-21.88 148.04-20.2 148.04-16.6L148.04-16.6ZM168.84 0L168.84-3 172.04-3 172.04-21.55 168.84-22.2 168.84-24.7 178.49-26.7 178.49-21.85 178.74-21.85Q179.09-22.8 179.64-23.68 180.19-24.55 180.96-25.23 181.74-25.9 182.74-26.3 183.74-26.7 184.99-26.7L184.99-26.7Q187.39-26.7 188.76-25.45 190.14-24.2 190.14-22L190.14-22Q190.14-20.1 189.19-19.05 188.24-18 186.54-18L186.54-18Q184.84-18 183.94-18.9 183.04-19.8 183.04-21.1L183.04-21.1Q183.04-21.8 183.34-22.35 183.64-22.9 184.04-23.05L184.04-23.05 184.04-23.25Q183.84-23.3 183.34-23.3L183.34-23.3Q182.49-23.3 181.64-22.83 180.79-22.35 180.11-21.63 179.44-20.9 179.01-20 178.59-19.1 178.59-18.2L178.59-18.2 178.59-3 182.79-3 182.79 0 168.84 0ZM199.18-30.25L199.18-30.25Q197.33-30.25 196.31-31.3 195.28-32.35 195.28-34.05L195.28-34.05 195.28-34.3Q195.28-36 196.31-37.05 197.33-38.1 199.18-38.1L199.18-38.1Q201.03-38.1 202.06-37.05 203.08-36 203.08-34.3L203.08-34.3 203.08-34.05Q203.08-32.35 202.06-31.3 201.03-30.25 199.18-30.25ZM192.73 0L192.73-3 195.93-3 195.93-21.55 192.73-22.2 192.73-24.7 202.48-26.7 202.48-3 205.68-3 205.68 0 192.73 0ZM209.13 0L209.13-3 212.33-3 212.33-21.55 209.13-22.2 209.13-24.7 218.78-26.7 218.78-21.85 219.03-21.85Q219.38-22.8 220.01-23.68 220.63-24.55 221.56-25.23 222.48-25.9 223.68-26.3 224.88-26.7 226.43-26.7L226.43-26.7Q231.18-26.7 233.18-24.28 235.18-21.85 235.18-17L235.18-17 235.18-3 238.38-3 238.38 0 225.58 0 225.58-3 228.63-3 228.63-16.7Q228.63-19.65 227.53-20.98 226.43-22.3 223.98-22.3L223.98-22.3Q223.03-22.3 222.13-22.05 221.23-21.8 220.51-21.28 219.78-20.75 219.33-19.95 218.88-19.15 218.88-18.05L218.88-18.05 218.88-3 221.93-3 221.93 0 209.13 0ZM253.48 10.6L253.48 10.6Q249.98 10.6 247.65 10.2 245.33 9.8 243.9 9.03 242.48 8.25 241.88 7.15 241.28 6.05 241.28 4.7L241.28 4.7Q241.28 2.8 242.93 1.55 244.58 0.3 246.83-0.1L246.83-0.1 246.83-0.3Q245.13-0.7 244.13-1.93 243.13-3.15 243.13-5.05L243.13-5.05Q243.13-7.25 244.58-8.5 246.03-9.75 248.08-10.2L248.08-10.2 248.08-10.45Q245.58-11.45 244.2-13.35 242.83-15.25 242.83-18.1L242.83-18.1Q242.83-20.15 243.6-21.75 244.38-23.35 245.8-24.45 247.23-25.55 249.2-26.13 251.18-26.7 253.58-26.7L253.58-26.7Q255.53-26.7 257.13-26.3 258.73-25.9 260.08-25.15L260.08-25.15Q260.28-27.95 261.45-29.23 262.63-30.5 264.68-30.5L264.68-30.5Q266.03-30.5 266.93-29.73 267.83-28.95 267.83-27.5L267.83-27.5Q267.83-26.2 266.98-25.38 266.13-24.55 264.68-24.55L264.68-24.55Q263.88-24.55 263.18-24.85 262.48-25.15 262.03-25.75L262.03-25.75 261.83-25.75 261.83-23.95Q262.98-22.95 263.7-21.55 264.43-20.15 264.43-18.1L264.43-18.1Q264.43-16.05 263.63-14.43 262.83-12.8 261.4-11.7 259.98-10.6 257.98-10.03 255.98-9.45 253.58-9.45L253.58-9.45Q251.83-9.45 250.08-9.85L250.08-9.85Q249.23-9.45 248.68-8.78 248.13-8.1 248.13-7.3L248.13-7.3Q248.13-6.2 248.95-5.68 249.78-5.15 251.68-5.15L251.68-5.15 257.53-5.15Q262.68-5.15 264.93-3.25 267.18-1.35 267.18 1.95L267.18 1.95Q267.18 6 263.78 8.3 260.38 10.6 253.48 10.6ZM253.63-12.5L253.63-12.5Q257.93-12.5 257.93-17.3L257.93-17.3 257.93-18.8Q257.93-23.6 253.63-23.6L253.63-23.6Q249.33-23.6 249.33-18.8L249.33-18.8 249.33-17.3Q249.33-12.5 253.63-12.5ZM246.68 4.2L246.68 4.2Q246.68 7.6 252.38 7.6L252.38 7.6 255.33 7.6Q258.48 7.6 260.1 6.65 261.73 5.7 261.73 3.85L261.73 3.85Q261.73 2.1 260.55 1.43 259.38 0.75 256.93 0.75L256.93 0.75 248.63 0.75Q247.63 1.35 247.15 2.18 246.68 3 246.68 4.2ZM294.42 0.6L294.42 0.6Q291.37 0.6 289.05-0.43 286.72-1.45 285.15-3.28 283.57-5.1 282.75-7.63 281.92-10.15 281.92-13.1L281.92-13.1Q281.92-16.3 282.92-18.85 283.92-21.4 285.67-23.13 287.42-24.85 289.82-25.78 292.22-26.7 295.02-26.7L295.02-26.7Q299.47-26.7 301.92-24.85 304.37-23 304.37-20.15L304.37-20.15Q304.37-18.35 303.4-17.3 302.42-16.25 300.67-16.25L300.67-16.25Q298.92-16.25 298-17.2 297.07-18.15 297.07-19.65L297.07-19.65Q297.07-20.85 297.7-21.7 298.32-22.55 299.22-22.95L299.22-22.95 299.22-23.2Q298.67-23.45 297.9-23.6 297.12-23.75 295.82-23.75L295.82-23.75Q292.67-23.75 290.82-21.65 288.97-19.55 288.97-15.95L288.97-15.95 288.97-11.2Q288.97-7.65 290.67-5.7 292.37-3.75 295.37-3.75L295.37-3.75Q298.22-3.75 299.9-5.05 301.57-6.35 302.42-8.2L302.42-8.2 304.82-6.7Q304.37-5.45 303.55-4.15 302.72-2.85 301.45-1.8 300.17-0.75 298.42-0.08 296.67 0.6 294.42 0.6ZM307.82 0L307.82-3 311.02-3 311.02-32.85 307.82-33.5 307.82-36 317.57-38 317.57-3 320.77-3 320.77 0 307.82 0ZM336.72 0.6L336.72 0.6Q333.72 0.6 331.39-0.4 329.07-1.4 327.47-3.23 325.87-5.05 325.04-7.58 324.22-10.1 324.22-13.1L324.22-13.1Q324.22-16.2 325.09-18.73 325.97-21.25 327.57-23.03 329.17-24.8 331.39-25.75 333.62-26.7 336.32-26.7L336.32-26.7Q339.02-26.7 341.19-25.83 343.37-24.95 344.89-23.35 346.42-21.75 347.24-19.53 348.07-17.3 348.07-14.55L348.07-14.55 348.07-13 331.27-13 331.27-11.2Q331.27-7.6 333.14-5.68 335.02-3.75 338.07-3.75L338.07-3.75Q340.87-3.75 342.57-5 344.27-6.25 345.07-8.1L345.07-8.1 347.52-6.6Q347.07-5.35 346.19-4.08 345.32-2.8 343.99-1.75 342.67-0.7 340.87-0.05 339.07 0.6 336.72 0.6ZM331.27-16.6L331.27-15.9 341.27-15.9 341.27-16.55Q341.27-20.15 339.99-21.85 338.72-23.55 336.32-23.55L336.32-23.55Q333.92-23.55 332.59-21.88 331.27-20.2 331.27-16.6L331.27-16.6ZM360.27 0.6L360.27 0.6Q356.22 0.6 354.27-1.35 352.32-3.3 352.32-6.75L352.32-6.75Q352.32-10.55 355.09-12.5 357.87-14.45 363.77-14.45L363.77-14.45 367.32-14.45 367.32-17.6Q367.32-20.65 366.07-22.23 364.82-23.8 361.97-23.8L361.97-23.8Q359.77-23.8 358.57-23.15L358.57-23.15 358.57-22.95Q359.07-22.65 359.54-22.03 360.02-21.4 360.02-20.3L360.02-20.3Q360.02-18.85 359.14-17.93 358.27-17 356.57-17L356.57-17Q355.12-17 354.19-17.95 353.27-18.9 353.27-20.45L353.27-20.45Q353.27-21.65 353.94-22.78 354.62-23.9 355.97-24.78 357.32-25.65 359.29-26.18 361.27-26.7 363.87-26.7L363.87-26.7Q368.87-26.7 371.37-24.43 373.87-22.15 373.87-18.05L373.87-18.05 373.87-2.95 377.07-2.95 377.07-0.45Q376.32 0.05 375.07 0.33 373.82 0.6 372.52 0.6L372.52 0.6Q370.02 0.6 368.92-0.63 367.82-1.85 367.82-3.75L367.82-3.75 367.82-3.9 367.57-3.9Q367.22-3.05 366.67-2.25 366.12-1.45 365.27-0.83 364.42-0.2 363.19 0.2 361.97 0.6 360.27 0.6ZM362.82-3.4L362.82-3.4Q364.82-3.4 366.07-4.35 367.32-5.3 367.32-7.55L367.32-7.55 367.32-11.75 364.47-11.75Q361.47-11.75 360.19-10.68 358.92-9.6 358.92-7.6L358.92-7.6 358.92-6.7Q358.92-5 359.99-4.2 361.07-3.4 362.82-3.4ZM380.51 0L380.51-3 383.71-3 383.71-21.55 380.51-22.2 380.51-24.7 390.16-26.7 390.16-21.85 390.41-21.85Q390.76-22.8 391.39-23.68 392.01-24.55 392.94-25.23 393.86-25.9 395.06-26.3 396.26-26.7 397.81-26.7L397.81-26.7Q402.56-26.7 404.56-24.28 406.56-21.85 406.56-17L406.56-17 406.56-3 409.76-3 409.76 0 396.96 0 396.96-3 400.01-3 400.01-16.7Q400.01-19.65 398.91-20.98 397.81-22.3 395.36-22.3L395.36-22.3Q394.41-22.3 393.51-22.05 392.61-21.8 391.89-21.28 391.16-20.75 390.71-19.95 390.26-19.15 390.26-18.05L390.26-18.05 390.26-3 393.31-3 393.31 0 380.51 0ZM412.71 0L412.71-3 415.91-3 415.91-32.85 412.71-33.5 412.71-36 422.46-38 422.46-3 425.66-3 425.66 0 412.71 0ZM435.61-30.25L435.61-30.25Q433.76-30.25 432.73-31.3 431.71-32.35 431.71-34.05L431.71-34.05 431.71-34.3Q431.71-36 432.73-37.05 433.76-38.1 435.61-38.1L435.61-38.1Q437.46-38.1 438.48-37.05 439.51-36 439.51-34.3L439.51-34.3 439.51-34.05Q439.51-32.35 438.48-31.3 437.46-30.25 435.61-30.25ZM429.16 0L429.16-3 432.36-3 432.36-21.55 429.16-22.2 429.16-24.7 438.91-26.7 438.91-3 442.11-3 442.11 0 429.16 0ZM445.56 0L445.56-3 448.75-3 448.75-21.55 445.56-22.2 445.56-24.7 455.2-26.7 455.2-21.85 455.45-21.85Q455.81-22.8 456.43-23.68 457.06-24.55 457.98-25.23 458.91-25.9 460.11-26.3 461.31-26.7 462.86-26.7L462.86-26.7Q467.61-26.7 469.61-24.28 471.61-21.85 471.61-17L471.61-17 471.61-3 474.81-3 474.81 0 462 0 462-3 465.06-3 465.06-16.7Q465.06-19.65 463.95-20.98 462.86-22.3 460.41-22.3L460.41-22.3Q459.45-22.3 458.56-22.05 457.66-21.8 456.93-21.28 456.2-20.75 455.75-19.95 455.31-19.15 455.31-18.05L455.31-18.05 455.31-3 458.36-3 458.36 0 445.56 0ZM490.75 0.6L490.75 0.6Q487.75 0.6 485.43-0.4 483.1-1.4 481.5-3.23 479.9-5.05 479.08-7.58 478.25-10.1 478.25-13.1L478.25-13.1Q478.25-16.2 479.13-18.73 480-21.25 481.6-23.03 483.2-24.8 485.43-25.75 487.65-26.7 490.35-26.7L490.35-26.7Q493.05-26.7 495.23-25.83 497.4-24.95 498.93-23.35 500.45-21.75 501.28-19.53 502.1-17.3 502.1-14.55L502.1-14.55 502.1-13 485.3-13 485.3-11.2Q485.3-7.6 487.18-5.68 489.05-3.75 492.1-3.75L492.1-3.75Q494.9-3.75 496.6-5 498.3-6.25 499.1-8.1L499.1-8.1 501.55-6.6Q501.1-5.35 500.23-4.08 499.35-2.8 498.03-1.75 496.7-0.7 494.9-0.05 493.1 0.6 490.75 0.6ZM485.3-16.6L485.3-15.9 495.3-15.9 495.3-16.55Q495.3-20.15 494.03-21.85 492.75-23.55 490.35-23.55L490.35-23.55Q487.95-23.55 486.63-21.88 485.3-20.2 485.3-16.6L485.3-16.6ZM517.05 0.6L517.05 0.6Q514.4 0.6 512.85-0.4 511.3-1.4 510.9-2.65L510.9-2.65 510.7-2.65 510.7 0 506.4 0 506.4-7.8 510.7-7.8 510.7-6.9Q510.7-4.9 511.95-3.8 513.2-2.7 516-2.7L516-2.7Q521-2.7 521-6.1L521-6.1Q521-7.5 520.1-8.33 519.2-9.15 517.3-9.65L517.3-9.65 514.8-10.3Q510.65-11.4 508.63-13.38 506.6-15.35 506.6-18.75L506.6-18.75Q506.6-22.55 509.1-24.63 511.6-26.7 515.8-26.7L515.8-26.7Q518.35-26.7 519.83-25.78 521.3-24.85 521.7-23.6L521.7-23.6 521.9-23.6 521.9-26.1 526.2-26.1 526.2-18.3 521.9-18.3 521.9-19.5Q521.9-21.4 520.65-22.4 519.4-23.4 516.7-23.4L516.7-23.4Q512.4-23.4 512.4-20.25L512.4-20.25Q512.4-18.8 513.27-17.9 514.15-17 516.25-16.5L516.25-16.5 518.6-15.95Q522.7-14.95 524.8-13.1 526.9-11.25 526.9-7.6L526.9-7.6Q526.9-3.75 524.23-1.58 521.55 0.6 517.05 0.6ZM541.85 0.6L541.85 0.6Q539.2 0.6 537.65-0.4 536.1-1.4 535.7-2.65L535.7-2.65 535.5-2.65 535.5 0 531.2 0 531.2-7.8 535.5-7.8 535.5-6.9Q535.5-4.9 536.75-3.8 538-2.7 540.8-2.7L540.8-2.7Q545.8-2.7 545.8-6.1L545.8-6.1Q545.8-7.5 544.9-8.33 544-9.15 542.1-9.65L542.1-9.65 539.6-10.3Q535.45-11.4 533.42-13.38 531.4-15.35 531.4-18.75L531.4-18.75Q531.4-22.55 533.9-24.63 536.4-26.7 540.6-26.7L540.6-26.7Q543.15-26.7 544.62-25.78 546.1-24.85 546.5-23.6L546.5-23.6 546.7-23.6 546.7-26.1 551-26.1 551-18.3 546.7-18.3 546.7-19.5Q546.7-21.4 545.45-22.4 544.2-23.4 541.5-23.4L541.5-23.4Q537.2-23.4 537.2-20.25L537.2-20.25Q537.2-18.8 538.07-17.9 538.95-17 541.05-16.5L541.05-16.5 543.4-15.95Q547.5-14.95 549.6-13.1 551.7-11.25 551.7-7.6L551.7-7.6Q551.7-3.75 549.02-1.58 546.35 0.6 541.85 0.6ZM575.29 0.6L575.29 0.6Q571.24 0.6 569.29-1.35 567.34-3.3 567.34-6.75L567.34-6.75Q567.34-10.55 570.12-12.5 572.89-14.45 578.79-14.45L578.79-14.45 582.34-14.45 582.34-17.6Q582.34-20.65 581.09-22.23 579.84-23.8 576.99-23.8L576.99-23.8Q574.79-23.8 573.59-23.15L573.59-23.15 573.59-22.95Q574.09-22.65 574.57-22.03 575.04-21.4 575.04-20.3L575.04-20.3Q575.04-18.85 574.17-17.93 573.29-17 571.59-17L571.59-17Q570.14-17 569.22-17.95 568.29-18.9 568.29-20.45L568.29-20.45Q568.29-21.65 568.97-22.78 569.64-23.9 570.99-24.78 572.34-25.65 574.32-26.18 576.29-26.7 578.89-26.7L578.89-26.7Q583.89-26.7 586.39-24.43 588.89-22.15 588.89-18.05L588.89-18.05 588.89-2.95 592.09-2.95 592.09-0.45Q591.34 0.05 590.09 0.33 588.84 0.6 587.54 0.6L587.54 0.6Q585.04 0.6 583.94-0.63 582.84-1.85 582.84-3.75L582.84-3.75 582.84-3.9 582.59-3.9Q582.24-3.05 581.69-2.25 581.14-1.45 580.29-0.83 579.44-0.2 578.22 0.2 576.99 0.6 575.29 0.6ZM577.84-3.4L577.84-3.4Q579.84-3.4 581.09-4.35 582.34-5.3 582.34-7.55L582.34-7.55 582.34-11.75 579.49-11.75Q576.49-11.75 575.22-10.68 573.94-9.6 573.94-7.6L573.94-7.6 573.94-6.7Q573.94-5 575.02-4.2 576.09-3.4 577.84-3.4ZM595.54 0L595.54-3 598.74-3 598.74-21.55 595.54-22.2 595.54-24.7 605.19-26.7 605.19-21.85 605.44-21.85Q605.79-22.8 606.41-23.68 607.04-24.55 607.96-25.23 608.89-25.9 610.09-26.3 611.29-26.7 612.84-26.7L612.84-26.7Q617.59-26.7 619.59-24.28 621.59-21.85 621.59-17L621.59-17 621.59-3 624.79-3 624.79 0 611.99 0 611.99-3 615.04-3 615.04-16.7Q615.04-19.65 613.94-20.98 612.84-22.3 610.39-22.3L610.39-22.3Q609.44-22.3 608.54-22.05 607.64-21.8 606.91-21.28 606.19-20.75 605.74-19.95 605.29-19.15 605.29-18.05L605.29-18.05 605.29-3 608.34-3 608.34 0 595.54 0ZM638.84 0.6L638.84 0.6Q636.44 0.6 634.51-0.35 632.59-1.3 631.21-3.08 629.84-4.85 629.11-7.38 628.39-9.9 628.39-13.05L628.39-13.05Q628.39-16.2 629.11-18.73 629.84-21.25 631.21-23.03 632.59-24.8 634.51-25.75 636.44-26.7 638.84-26.7L638.84-26.7Q641.69-26.7 643.44-25.35 645.19-24 645.94-22.25L645.94-22.25 646.19-22.25 646.19-32.85 642.99-33.5 642.99-36 652.74-38 652.74-4.55 655.94-3.9 655.94-1.4 646.19 0.6 646.19-3.9 645.94-3.9Q645.19-2.1 643.41-0.75 641.64 0.6 638.84 0.6ZM640.99-3.5L640.99-3.5Q643.09-3.5 644.64-4.78 646.19-6.05 646.19-8.25L646.19-8.25 646.19-17.85Q646.19-20.05 644.64-21.33 643.09-22.6 640.99-22.6L640.99-22.6Q638.49-22.6 636.94-20.9 635.39-19.2 635.39-16.1L635.39-16.1 635.39-10Q635.39-6.9 636.94-5.2 638.49-3.5 640.99-3.5ZM681.98 0.6L681.98 0.6Q679.33 0.6 677.78-0.4 676.23-1.4 675.83-2.65L675.83-2.65 675.63-2.65 675.63 0 671.33 0 671.33-7.8 675.63-7.8 675.63-6.9Q675.63-4.9 676.88-3.8 678.13-2.7 680.93-2.7L680.93-2.7Q685.93-2.7 685.93-6.1L685.93-6.1Q685.93-7.5 685.03-8.33 684.13-9.15 682.23-9.65L682.23-9.65 679.73-10.3Q675.58-11.4 673.56-13.38 671.53-15.35 671.53-18.75L671.53-18.75Q671.53-22.55 674.03-24.63 676.53-26.7 680.73-26.7L680.73-26.7Q683.28-26.7 684.76-25.78 686.23-24.85 686.63-23.6L686.63-23.6 686.83-23.6 686.83-26.1 691.13-26.1 691.13-18.3 686.83-18.3 686.83-19.5Q686.83-21.4 685.58-22.4 684.33-23.4 681.63-23.4L681.63-23.4Q677.33-23.4 677.33-20.25L677.33-20.25Q677.33-18.8 678.21-17.9 679.08-17 681.18-16.5L681.18-16.5 683.53-15.95Q687.63-14.95 689.73-13.1 691.83-11.25 691.83-7.6L691.83-7.6Q691.83-3.75 689.16-1.58 686.48 0.6 681.98 0.6ZM707.28 0.6L707.28 0.6Q702.53 0.6 700.53-1.83 698.53-4.25 698.53-9.1L698.53-9.1 698.53-21.55 695.33-22.2 695.33-24.7 705.08-26.7 705.08-9.4Q705.08-6.45 706.18-5.13 707.28-3.8 709.73-3.8L709.73-3.8Q710.68-3.8 711.58-4.05 712.48-4.3 713.2-4.83 713.93-5.35 714.38-6.15 714.83-6.95 714.83-8.05L714.83-8.05 714.83-21.55 711.58-22.2 711.58-24.7 721.38-26.7 721.38-4.55 724.58-3.9 724.58-1.4 714.93 0.6 714.93-4.25 714.68-4.25Q714.33-3.3 713.7-2.43 713.08-1.55 712.15-0.88 711.23-0.2 710.03 0.2 708.83 0.6 707.28 0.6ZM739.08 0.6L739.08 0.6Q736.43 0.6 734.88-0.4 733.33-1.4 732.93-2.65L732.93-2.65 732.73-2.65 732.73 0 728.43 0 728.43-7.8 732.73-7.8 732.73-6.9Q732.73-4.9 733.98-3.8 735.23-2.7 738.03-2.7L738.03-2.7Q743.03-2.7 743.03-6.1L743.03-6.1Q743.03-7.5 742.13-8.33 741.23-9.15 739.33-9.65L739.33-9.65 736.83-10.3Q732.68-11.4 730.65-13.38 728.63-15.35 728.63-18.75L728.63-18.75Q728.63-22.55 731.13-24.63 733.63-26.7 737.83-26.7L737.83-26.7Q740.38-26.7 741.85-25.78 743.33-24.85 743.73-23.6L743.73-23.6 743.93-23.6 743.93-26.1 748.23-26.1 748.23-18.3 743.93-18.3 743.93-19.5Q743.93-21.4 742.68-22.4 741.43-23.4 738.73-23.4L738.73-23.4Q734.43-23.4 734.43-20.25L734.43-20.25Q734.43-18.8 735.3-17.9 736.18-17 738.28-16.5L738.28-16.5 740.63-15.95Q744.73-14.95 746.83-13.1 748.93-11.25 748.93-7.6L748.93-7.6Q748.93-3.75 746.25-1.58 743.58 0.6 739.08 0.6ZM761.12 0.45L761.12 0.45Q758.17 0.45 756.9-0.8 755.62-2.05 755.62-4.65L755.62-4.65 755.62-22.9 752.17-22.9 752.17-26.1 753.27-26.1Q755.02-26.1 755.77-26.78 756.52-27.45 757.07-28.8L757.07-28.8 758.87-33.15 762.17-33.15 762.17-26.1 768.17-26.1 768.17-22.9 762.17-22.9 762.17-3.1 768.17-3.1 768.17-0.55Q767.37-0.15 765.42 0.15 763.47 0.45 761.12 0.45ZM778.92 0.6L778.92 0.6Q774.87 0.6 772.92-1.35 770.97-3.3 770.97-6.75L770.97-6.75Q770.97-10.55 773.75-12.5 776.52-14.45 782.42-14.45L782.42-14.45 785.97-14.45 785.97-17.6Q785.97-20.65 784.72-22.23 783.47-23.8 780.62-23.8L780.62-23.8Q778.42-23.8 777.22-23.15L777.22-23.15 777.22-22.95Q777.72-22.65 778.2-22.03 778.67-21.4 778.67-20.3L778.67-20.3Q778.67-18.85 777.8-17.93 776.92-17 775.22-17L775.22-17Q773.77-17 772.85-17.95 771.92-18.9 771.92-20.45L771.92-20.45Q771.92-21.65 772.6-22.78 773.27-23.9 774.62-24.78 775.97-25.65 777.95-26.18 779.92-26.7 782.52-26.7L782.52-26.7Q787.52-26.7 790.02-24.43 792.52-22.15 792.52-18.05L792.52-18.05 792.52-2.95 795.72-2.95 795.72-0.45Q794.97 0.05 793.72 0.33 792.47 0.6 791.17 0.6L791.17 0.6Q788.67 0.6 787.57-0.63 786.47-1.85 786.47-3.75L786.47-3.75 786.47-3.9 786.22-3.9Q785.87-3.05 785.32-2.25 784.77-1.45 783.92-0.83 783.07-0.2 781.85 0.2 780.62 0.6 778.92 0.6ZM781.47-3.4L781.47-3.4Q783.47-3.4 784.72-4.35 785.97-5.3 785.97-7.55L785.97-7.55 785.97-11.75 783.12-11.75Q780.12-11.75 778.85-10.68 777.57-9.6 777.57-7.6L777.57-7.6 777.57-6.7Q777.57-5 778.65-4.2 779.72-3.4 781.47-3.4ZM805.67-30.25L805.67-30.25Q803.82-30.25 802.79-31.3 801.77-32.35 801.77-34.05L801.77-34.05 801.77-34.3Q801.77-36 802.79-37.05 803.82-38.1 805.67-38.1L805.67-38.1Q807.52-38.1 808.54-37.05 809.57-36 809.57-34.3L809.57-34.3 809.57-34.05Q809.57-32.35 808.54-31.3 807.52-30.25 805.67-30.25ZM799.22 0L799.22-3 802.42-3 802.42-21.55 799.22-22.2 799.22-24.7 808.97-26.7 808.97-3 812.17-3 812.17 0 799.22 0ZM815.62 0L815.62-3 818.82-3 818.82-21.55 815.62-22.2 815.62-24.7 825.27-26.7 825.27-21.85 825.52-21.85Q825.87-22.8 826.49-23.68 827.12-24.55 828.04-25.23 828.97-25.9 830.17-26.3 831.37-26.7 832.92-26.7L832.92-26.7Q837.67-26.7 839.67-24.28 841.67-21.85 841.67-17L841.67-17 841.67-3 844.87-3 844.87 0 832.07 0 832.07-3 835.12-3 835.12-16.7Q835.12-19.65 834.02-20.98 832.92-22.3 830.47-22.3L830.47-22.3Q829.52-22.3 828.62-22.05 827.72-21.8 826.99-21.28 826.27-20.75 825.82-19.95 825.37-19.15 825.37-18.05L825.37-18.05 825.37-3 828.42-3 828.42 0 815.62 0ZM856.06 0.6L856.06 0.6Q852.01 0.6 850.06-1.35 848.11-3.3 848.11-6.75L848.11-6.75Q848.11-10.55 850.89-12.5 853.66-14.45 859.56-14.45L859.56-14.45 863.11-14.45 863.11-17.6Q863.11-20.65 861.86-22.23 860.61-23.8 857.76-23.8L857.76-23.8Q855.56-23.8 854.36-23.15L854.36-23.15 854.36-22.95Q854.86-22.65 855.34-22.03 855.81-21.4 855.81-20.3L855.81-20.3Q855.81-18.85 854.94-17.93 854.06-17 852.36-17L852.36-17Q850.91-17 849.99-17.95 849.06-18.9 849.06-20.45L849.06-20.45Q849.06-21.65 849.74-22.78 850.41-23.9 851.76-24.78 853.11-25.65 855.09-26.18 857.06-26.7 859.66-26.7L859.66-26.7Q864.66-26.7 867.16-24.43 869.66-22.15 869.66-18.05L869.66-18.05 869.66-2.95 872.86-2.95 872.86-0.45Q872.11 0.05 870.86 0.33 869.61 0.6 868.31 0.6L868.31 0.6Q865.81 0.6 864.71-0.63 863.61-1.85 863.61-3.75L863.61-3.75 863.61-3.9 863.36-3.9Q863.01-3.05 862.46-2.25 861.91-1.45 861.06-0.83 860.21-0.2 858.99 0.2 857.76 0.6 856.06 0.6ZM858.61-3.4L858.61-3.4Q860.61-3.4 861.86-4.35 863.11-5.3 863.11-7.55L863.11-7.55 863.11-11.75 860.26-11.75Q857.26-11.75 855.99-10.68 854.71-9.6 854.71-7.6L854.71-7.6 854.71-6.7Q854.71-5 855.79-4.2 856.86-3.4 858.61-3.4ZM892.31 0.6L892.31 0.6Q889.31 0.6 887.41-0.75 885.51-2.1 884.76-3.9L884.76-3.9 884.51-3.9 881.36 0 878.41 0 878.41-32.85 875.21-33.5 875.21-36 884.96-38 884.96-22.25 885.21-22.25Q885.96-24 887.71-25.35 889.46-26.7 892.31-26.7L892.31-26.7Q894.71-26.7 896.64-25.75 898.56-24.8 899.94-23.03 901.31-21.25 902.04-18.73 902.76-16.2 902.76-13.05L902.76-13.05Q902.76-9.9 902.04-7.38 901.31-4.85 899.94-3.08 898.56-1.3 896.64-0.35 894.71 0.6 892.31 0.6ZM890.16-3.5L890.16-3.5Q892.66-3.5 894.21-5.2 895.76-6.9 895.76-10L895.76-10 895.76-16.1Q895.76-19.2 894.21-20.9 892.66-22.6 890.16-22.6L890.16-22.6Q888.06-22.6 886.51-21.33 884.96-20.05 884.96-17.85L884.96-17.85 884.96-8.25Q884.96-6.05 886.51-4.78 888.06-3.5 890.16-3.5ZM913.46-30.25L913.46-30.25Q911.61-30.25 910.58-31.3 909.56-32.35 909.56-34.05L909.56-34.05 909.56-34.3Q909.56-36 910.58-37.05 911.61-38.1 913.46-38.1L913.46-38.1Q915.31-38.1 916.33-37.05 917.36-36 917.36-34.3L917.36-34.3 917.36-34.05Q917.36-32.35 916.33-31.3 915.31-30.25 913.46-30.25ZM907.01 0L907.01-3 910.21-3 910.21-21.55 907.01-22.2 907.01-24.7 916.76-26.7 916.76-3 919.96-3 919.96 0 907.01 0ZM922.91 0L922.91-3 926.11-3 926.11-32.85 922.91-33.5 922.91-36 932.66-38 932.66-3 935.86-3 935.86 0 922.91 0ZM945.8-30.25L945.8-30.25Q943.95-30.25 942.93-31.3 941.9-32.35 941.9-34.05L941.9-34.05 941.9-34.3Q941.9-36 942.93-37.05 943.95-38.1 945.8-38.1L945.8-38.1Q947.65-38.1 948.68-37.05 949.7-36 949.7-34.3L949.7-34.3 949.7-34.05Q949.7-32.35 948.68-31.3 947.65-30.25 945.8-30.25ZM939.35 0L939.35-3 942.55-3 942.55-21.55 939.35-22.2 939.35-24.7 949.1-26.7 949.1-3 952.3-3 952.3 0 939.35 0ZM964.05 0.45L964.05 0.45Q961.1 0.45 959.83-0.8 958.55-2.05 958.55-4.65L958.55-4.65 958.55-22.9 955.1-22.9 955.1-26.1 956.2-26.1Q957.95-26.1 958.7-26.78 959.45-27.45 960-28.8L960-28.8 961.8-33.15 965.1-33.15 965.1-26.1 971.1-26.1 971.1-22.9 965.1-22.9 965.1-3.1 971.1-3.1 971.1-0.55Q970.3-0.15 968.35 0.15 966.4 0.45 964.05 0.45ZM978.45 10.6L978.45 10.6Q975.6 10.6 974.1 9.22 972.6 7.85 972.6 5.9L972.6 5.9Q972.6 4.25 973.52 3.33 974.45 2.4 976.1 2.4L976.1 2.4Q977.65 2.4 978.52 3.35 979.4 4.3 979.4 5.7L979.4 5.7Q979.4 6.4 979.12 6.98 978.85 7.55 978.55 7.8L978.55 7.8 978.6 8.1Q978.85 8.15 979.4 8.15L979.4 8.15Q982 8.15 984.05 2.95L984.05 2.95 984.75 1.2 975.1-23.1 972.65-23.1 972.65-26.1 985.1-26.1 985.1-23.1 982.05-23.1 987.8-6.8 988.05-6.8 993.8-23.1 990.75-23.1 990.75-26.1 999.95-26.1 999.95-23.1 997.55-23.1 987.05 3.15Q986.5 4.5 985.77 5.85 985.05 7.2 984.02 8.25 983 9.3 981.62 9.95 980.25 10.6 978.45 10.6Z" opacity="1" transform="matrix(1,0,0,1,0,0)" fill="#fbf7d7" class="slogan-text-1" data-fill-palette-color="quaternary" id="text-1"></path></svg></g></svg></g></svg></g></svg></g><g><svg viewBox="0 0 112.75475740705475 111.00021684080215" height="111.00021684080215" width="112.75475740705475"><g><svg version="1.0" xmlns="http://www.w3.org/2000/svg" xmlns:xlink="http://www.w3.org/1999/xlink" x="0" y="0" viewBox="0 -9.5367431640625e-7 99.99905395507812 98.44300079345703" enable-background="new 0 0 100 98.443" xml:space="preserve" width="112.75475740705475" height="111.00021684080215" class="icon-icon-0" data-fill-palette-color="quaternary" id="icon-0"><path d="M80.221 16.032c4.432 0 8.031-3.576 8.031-8.008 0-4.425-3.6-8.024-8.031-8.024-4.424 0-8.001 3.599-8.001 8.024C72.22 12.456 75.797 16.032 80.221 16.032z" fill="#fbf7d7" data-fill-palette-color="quaternary"></path><path d="M58.195 35.252h-12.07c-4.789 0-4.789 6.296 0 6.296l13.798-0.021c1.022 0 2.082-0.545 2.894-1.818l6.939-10.941-0.021 65.008c0 2.482 2.016 4.5 4.5 4.5 2.486 0 4.494-2.016 4.494-4.5V56.065h3.03l-0.021 37.711c0 2.482 2.016 4.5 4.502 4.5 2.484 0 4.501-2.016 4.501-4.5V28.768h2.984v23.958c0 4.832 6.296 4.832 6.274 0V28.268c0-5.326-4.122-10.555-10.372-10.555h-14.8c-3.599 0-6.729 1.841-8.577 4.661L58.195 35.252z" fill="#fbf7d7" data-fill-palette-color="quaternary"></path><path d="M10.038 75.5c7.221 0 13.071 5.85 13.071 13.07l-0.122 8.879h15.396l13.919-39.276 0.074-13.304L5.638 44.891 5.616 75.478 10.038 75.5z" fill="#fbf7d7" data-fill-palette-color="quaternary"></path><path d="M0 88.571c0-5.448 4.424-9.873 9.873-9.873 5.448 0 9.873 4.423 9.873 9.873 0 5.447-4.425 9.872-9.873 9.872C4.424 98.443 0 94.018 0 88.571zM9.872 92.851c2.371 0 4.288-1.917 4.288-4.28 0-2.372-1.917-4.289-4.288-4.289-2.364 0-4.281 1.917-4.281 4.289C5.591 90.934 7.508 92.851 9.872 92.851z" fill="#fbf7d7" data-fill-palette-color="quaternary"></path><path d="M43.755 24.767L43.755 24.767l-1.849 0.903-0.869-1.827 0 0-1.827 0.879-0.878-1.826 0 0-1.818 0.878-0.903-1.826h0.022l-1.849 0.902-0.87-1.848v0.022l-1.827 0.879-0.871-1.872-5.546 15.79c-0.448 1.28 0.243 2.697 1.514 3.129l8.956 3.099c1.272 0.447 2.675-0.235 3.122-1.515L43.755 24.767z" fill="#fbf7d7" data-fill-palette-color="quaternary"></path><polygon points="35.921,8.759 33.336,6.583 2.961,42.573 5.561,44.746 " fill="#fbf7d7" data-fill-palette-color="quaternary"></polygon></svg></g></svg></g></svg></g></svg></g></svg></g><defs></defs></svg><rect width="320" height="360" fill="none" stroke="none" visibility="hidden"></rect></g></svg></g></svg>